<svg xmlns="http://www.w3.org/2000/svg" xmlns:xlink="http://www.w3.org/1999/xlink" viewBox="0 0 1223.14 322.94"><defs><style>.cls-1{fill:url(#Безымянный_градиент_451);}.cls-2{fill:url(#Безымянный_градиент_451-2);}.cls-3{fill:url(#Безымянный_градиент_451-3);}.cls-4{fill:url(#Безымянный_градиент_451-4);}.cls-5{fill:url(#Безымянный_градиент_451-5);}.cls-6{fill:url(#Безымянный_градиент_451-6);}.cls-7{fill:url(#Безымянный_градиент_451-7);}.cls-8{fill:url(#Безымянный_градиент_451-8);}.cls-9{fill:url(#Безымянный_градиент_451-9);}.cls-10{fill:url(#Безымянный_градиент_451-10);}.cls-11{fill:url(#Безымянный_градиент_451-11);}.cls-12{fill:url(#Безымянный_градиент_451-12);}.cls-13{fill:url(#Безымянный_градиент_451-13);}.cls-14{fill:url(#Безымянный_градиент_451-14);}.cls-15{fill:url(#Безымянный_градиент_451-15);}.cls-16{fill:url(#Безымянный_градиент_451-16);}.cls-17{fill:url(#Безымянный_градиент_451-17);}.cls-18{fill:url(#Безымянный_градиент_451-18);}.cls-19{fill:url(#Безымянный_градиент_451-19);}.cls-20{fill:url(#Безымянный_градиент_451-20);}.cls-21{fill:url(#Безымянный_градиент_451-21);}.cls-22{fill:url(#Безымянный_градиент_451-22);}.cls-23{fill:url(#Безымянный_градиент_451-23);}.cls-24{fill:url(#Безымянный_градиент_451-24);}.cls-25{fill:url(#Безымянный_градиент_451-25);}.cls-26{fill:url(#Безымянный_градиент_451-26);}.cls-27{fill:url(#Безымянный_градиент_451-27);}.cls-28{fill:url(#Безымянный_градиент_451-28);}.cls-29{fill:url(#Безымянный_градиент_3);}.cls-30{fill:url(#Безымянный_градиент_3-2);}.cls-31{fill:url(#Безымянный_градиент_3-3);}.cls-32{fill:url(#Безымянный_градиент_395);}.cls-33{fill:#ffca10;}</style><linearGradient id="Безымянный_градиент_451" x1="697" y1="120.76" x2="1223.14" y2="120.76" gradientUnits="userSpaceOnUse"><stop offset="0" stop-color="#d41100"/><stop offset="1" stop-color="#ff753f"/></linearGradient><linearGradient id="Безымянный_градиент_451-2" x1="671.3" y1="113.6" x2="678.03" y2="113.6" xlink:href="#Безымянный_градиент_451"/><linearGradient id="Безымянный_градиент_451-3" x1="598.2" y1="83.67" x2="611.86" y2="83.67" xlink:href="#Безымянный_градиент_451"/><linearGradient id="Безымянный_градиент_451-4" x1="632.41" y1="80.47" x2="638.92" y2="80.47" xlink:href="#Безымянный_градиент_451"/><linearGradient id="Безымянный_градиент_451-5" x1="620.55" y1="95.3" x2="627.13" y2="95.3" xlink:href="#Безымянный_градиент_451"/><linearGradient id="Безымянный_градиент_451-6" x1="616.4" y1="64.26" x2="618.2" y2="64.26" xlink:href="#Безымянный_градиент_451"/><linearGradient id="Безымянный_градиент_451-7" x1="575.15" y1="76.2" x2="581.78" y2="76.2" xlink:href="#Безымянный_градиент_451"/><linearGradient id="Безымянный_градиент_451-8" x1="594" y1="52.37" x2="598.95" y2="52.37" xlink:href="#Безымянный_градиент_451"/><linearGradient id="Безымянный_градиент_451-9" x1="575.15" y1="54.94" x2="576.96" y2="54.94" xlink:href="#Безымянный_градиент_451"/><linearGradient id="Безымянный_градиент_451-10" x1="467.1" y1="0.9" x2="468.9" y2="0.9" xlink:href="#Безымянный_градиент_451"/><linearGradient id="Безымянный_градиент_451-11" x1="581.78" y1="41.23" x2="583.59" y2="41.23" xlink:href="#Безымянный_градиент_451"/><linearGradient id="Безымянный_градиент_451-12" x1="660.64" y1="106.05" x2="662.44" y2="106.05" xlink:href="#Безымянный_градиент_451"/><linearGradient id="Безымянный_градиент_451-13" x1="553.14" y1="46.66" x2="560.07" y2="46.66" xlink:href="#Безымянный_градиент_451"/><linearGradient id="Безымянный_градиент_451-14" x1="658.05" y1="94.38" x2="659.85" y2="94.38" xlink:href="#Безымянный_градиент_451"/><linearGradient id="Безымянный_градиент_451-15" x1="524.07" y1="46.66" x2="537.44" y2="46.66" xlink:href="#Безымянный_градиент_451"/><linearGradient id="Безымянный_градиент_451-16" x1="539.91" y1="29.2" x2="544.85" y2="29.2" xlink:href="#Безымянный_градиент_451"/><linearGradient id="Безымянный_градиент_451-17" x1="514.94" y1="24.79" x2="519.89" y2="24.79" xlink:href="#Безымянный_градиент_451"/><linearGradient id="Безымянный_градиент_451-18" x1="496.34" y1="30.97" x2="504.2" y2="30.97" xlink:href="#Безымянный_градиент_451"/><linearGradient id="Безымянный_градиент_451-19" x1="475.75" y1="15.99" x2="479.24" y2="15.99" xlink:href="#Безымянный_градиент_451"/><linearGradient id="Безымянный_градиент_451-20" x1="484.28" y1="4.76" x2="486.09" y2="4.76" xlink:href="#Безымянный_градиент_451"/><linearGradient id="Безымянный_градиент_451-21" x1="534.97" y1="13.41" x2="539.91" y2="13.41" xlink:href="#Безымянный_градиент_451"/><linearGradient id="Безымянный_градиент_451-22" x1="641.6" y1="103.27" x2="651.69" y2="103.27" xlink:href="#Безымянный_градиент_451"/><linearGradient id="Безымянный_градиент_451-23" x1="560.8" y1="29.2" x2="568.81" y2="29.2" xlink:href="#Безымянный_градиент_451"/><linearGradient id="Безымянный_градиент_451-24" x1="495.32" y1="14.25" x2="497.13" y2="14.25" xlink:href="#Безымянный_градиент_451"/><linearGradient id="Безымянный_градиент_451-25" x1="553.28" y1="64.26" x2="556.61" y2="64.26" xlink:href="#Безымянный_градиент_451"/><linearGradient id="Безымянный_градиент_451-26" x1="592.56" y1="67.01" x2="595.89" y2="67.01" xlink:href="#Безымянный_градиент_451"/><linearGradient id="Безымянный_градиент_451-27" x1="510.95" y1="8.38" x2="516.89" y2="8.38" xlink:href="#Безымянный_градиент_451"/><linearGradient id="Безымянный_градиент_451-28" x1="684.08" y1="121.32" x2="686.37" y2="121.32" xlink:href="#Безымянный_градиент_451"/><linearGradient id="Безымянный_градиент_3" x1="-101.2" y1="-924.67" x2="252.15" y2="-1169.85" gradientTransform="matrix(1, 0, 0, -1, 0, -830.1)" gradientUnits="userSpaceOnUse"><stop offset="0" stop-color="#3260cd"/><stop offset="1" stop-color="#ab81eb"/></linearGradient><linearGradient id="Безымянный_градиент_3-2" x1="-96.04" y1="-917.22" x2="257.31" y2="-1162.41" xlink:href="#Безымянный_градиент_3"/><linearGradient id="Безымянный_градиент_3-3" x1="-58.55" y1="-863.21" x2="294.79" y2="-1108.39" xlink:href="#Безымянный_градиент_3"/><linearGradient id="Безымянный_градиент_395" x1="185.39" y1="191.27" x2="335.79" y2="191.27" gradientUnits="userSpaceOnUse"><stop offset="0" stop-color="#1e633b"/><stop offset="1" stop-color="#00aa86"/></linearGradient></defs><g id="Слой_2" data-name="Слой 2"><g id="Слой_1-2" data-name="Слой 1"><path class="cls-1" d="M1217.71,146.28c-2.39.71-4.65,1.86-5.28,1.53s-.5-1.6-.5-1.6c.59-4.1-2.4-13.69-8.55-18.17s-6.85-5.3-7.16-6.52,1.85-2.15,3.25-3a3,3,0,0,0,1.17-3,4.77,4.77,0,0,1,.27-1.68c.21-1-2.13-.56-3.35-.28a6.47,6.47,0,0,1-3.48.1,15.19,15.19,0,0,0-4.93-.46,4.56,4.56,0,0,1-3.53-1c-1.13-.87-.23-2.87.15-4a3.8,3.8,0,0,1,2-2.33c.85-.36,1.94-1.33-.13-2.57s-3.64,1-4,2-.81,3.9-1.17,4.79-.59-.91-.73-2.09a6.11,6.11,0,0,1,.51-3.08c.39-1.06.72-3.62-1.5-3.55s-1.41,4-1,5.19.32,2.15-.27,1.69-3.34-3.5-3.34-3.5a18,18,0,0,1-1.36-4.1c-.1-1.11-.62-3.1.63-3.16s1.12-1.62,1-2.7-2.18-1.61-3.52,1.11-.39,6.74.41,8.43-.28,1.56-1.28.77-2.23-3.44-2.76-5a6,6,0,0,1-.16-3c.24-1.39,0-1.86-1-2.27-.38-.17-1.89-.3-2,2.07s1.94,6.65,2.84,8.78-1,1-3-.14-1.9-1.62-2.12-2.46-1.82-4.18-2.22-5.13.15-1.34.06-2.85-2.72-1.46-2.89.82,1.75,5.68,3.13,8,.54,1.67-.76,1.22-4-3.13-4.75-4.72a26.16,26.16,0,0,1-1.47-5.72c-.34-1.63-2-1.41-2.48.14s.91,4.77,3,8,3.35,4,7,5.61,1.82,1.76-.84,2.61-3.47-.19-4.34-1-3,.68-2,2.59,4.49,1.2,5.79,1,.82,1.17,1.37,2.25,2.32,2.07,4.93,3,3.15,2,1.33,3.26-4,.76-5.56.31-1.41-1.21-1.58-2.57-2-2.83-3.39-1,.5,3.6,2.12,4.23,3.55,2.06,2.26,3-3,.71-4.79.23-2-1.13-2.2-2.16a1.66,1.66,0,0,0-2.15-1.32,2.11,2.11,0,0,0-1.27,3c.66,1.17,3.18,3.28,7.21,3.84s6.38-.89,7.4-2.3,2.56-2.2,3.23-1.65.15,1.66-1.9,2.29-.64,4.36,1.91,3.65,4.61-8.15,4.75-9.59a7.16,7.16,0,0,1,3.68-4.91c2.38-1.42,3.72,0,3.72,0,2,1.78-1.73,2.3-1.29,3.52s1.91.4,2.55,1.24-.68,2.39.22,2.92,2-.76,2.17-1.47a.88.88,0,0,1,1.58-.3c.58.62,3.32,5.57,5.39,9.21s3.17,9.92,1,11.63-5.32,1.8-9.72-.12-10.91-2.12-10.91-2.12c-2.34-3.53-6.29-3.26-5.65,0a7.52,7.52,0,0,0,2.72,4.7,9.6,9.6,0,0,1-.09,1.12c-31.46,15.1-59.4,7.7-63.06,6.62-.26-4.72-2.36-11.49-6.67-15.45-5.6-5.14-6.21-6-6.38-7.28s2.08-1.93,3.56-2.59a3,3,0,0,0,1.51-2.87c0-.35.13-.7.45-1.64s-2-.79-3.29-.65a6.52,6.52,0,0,1-3.48-.3,15.13,15.13,0,0,0-4.84-1,4.57,4.57,0,0,1-3.39-1.45c-1-1,.1-2.88.6-3.95a3.83,3.83,0,0,1,2.27-2.09c.89-.26,2.08-1.1.17-2.56s-3.73.57-4.22,1.48-1.24,3.79-1.69,4.63-.49-1-.5-2.15a6.11,6.11,0,0,1,.86-3c.51-1,1.13-3.53-1.09-3.7s-1.85,3.8-1.62,5,.08,2.17-.45,1.64-2.93-3.86-2.93-3.86a17.76,17.76,0,0,1-.88-4.22c0-1.12-.27-3.15,1-3.07s1.29-1.48,1.29-2.57-2-1.85-3.63.7-1.15,6.66-.54,8.43-.46,1.52-1.36.62-1.83-3.67-2.17-5.32a6,6,0,0,1,.18-3.05c.4-1.35.19-1.85-.69-2.37-.36-.21-1.85-.51-2.22,1.84s1.17,6.83,1.83,9-1.16.9-2.94-.47-1.7-1.83-1.82-2.69-1.34-4.36-1.63-5.34.3-1.32.38-2.83-2.53-1.76-3,.49,1.11,5.84,2.22,8.26.35,1.72-.89,1.12-3.59-3.55-4.19-5.22a26.34,26.34,0,0,1-.82-5.85c-.15-1.66-1.85-1.63-2.47-.14s.36,4.85,2.08,8.3,2.88,4.34,6.32,6.36,1.61,2-1.13,2.5-3.42-.58-4.19-1.51-3.07.33-2.26,2.35,4.32,1.7,5.64,1.65.68,1.26,1.11,2.39,2.07,2.33,4.55,3.58,2.9,2.36,1,3.39-4.1.3-5.56-.32-1.27-1.36-1.28-2.73-1.71-3-3.26-1.39.1,3.64,1.63,4.45,3.3,2.44,1.91,3.22-3.06.37-4.79-.31-1.81-1.34-1.94-2.39a1.65,1.65,0,0,0-2-1.56,2.11,2.11,0,0,0-1.6,2.8c.52,1.23,2.79,3.61,6.74,4.62s6.43-.16,7.61-1.44,2.79-1.89,3.38-1.27,0,1.66-2.14,2-1.13,4.26,1.49,3.85,5.5-7.58,5.81-9a7.1,7.1,0,0,1,4.2-4.46c2.53-1.15,3.7.41,3.7.41,1.76,2-2,2.08-1.68,3.35s1.85.61,2.4,1.52-1,2.3-.11,2.93,2-.54,2.32-1.22a.87.87,0,0,1,1.59-.12c.51.68,2.68,5.91,4.32,9.75s2,10.22-.34,11.68-5.49,1.18-9.65-1.23-10.6-3.33-10.6-3.33c-1.93-3.77-5.88-4-5.62-.6a7.48,7.48,0,0,0,2.17,5,7,7,0,0,1-.17.92.52.52,0,0,0-.3,0c-31,12.38-57.33,4.51-62.88,2.58.58-4.69-.6-12.39-4.7-17.17-4.94-5.77-5.44-6.74-5.46-8s2.29-1.66,3.84-2.14a3,3,0,0,0,1.84-2.67c0-.35.22-.69.64-1.58s-1.93-1-3.19-1a6.6,6.6,0,0,1-3.41-.7,14.76,14.76,0,0,0-4.69-1.58,4.57,4.57,0,0,1-3.19-1.84c-.91-1.11.43-2.85,1.06-3.86a3.82,3.82,0,0,1,2.5-1.8c.92-.15,2.2-.85.47-2.53s-3.77.13-4.36,1-1.68,3.61-2.23,4.39-.37-1-.23-2.2a6.07,6.07,0,0,1,1.2-2.87c.63-1,1.54-3.37-.64-3.81s-2.29,3.56-2.21,4.82-.18,2.16-.65,1.58-2.44-4.19-2.44-4.19a17.64,17.64,0,0,1-.38-4.29c.16-1.11.11-3.16,1.34-2.93s1.46-1.32,1.59-2.4-1.76-2.07-3.69.26-1.93,6.48-1.54,8.31-.63,1.45-1.42.45-1.38-3.86-1.52-5.54a6,6,0,0,1,.54-3c.56-1.3.41-1.82-.41-2.44-.33-.25-1.77-.73-2.41,1.56s.35,6.92.73,9.2-1.25.75-2.85-.82-1.47-2-1.5-2.89-.81-4.49-1-5.5.46-1.27.71-2.76-2.3-2-3,.14.4,5.93,1.22,8.46.14,1.75-1,1-3.14-4-3.54-5.69a26,26,0,0,1-.11-5.9c0-1.67-1.65-1.84-2.44-.43s-.22,4.85,1.08,8.49,2.34,4.65,5.52,7.06,1.36,2.14-1.42,2.35-3.33-1-4-2-3.09,0-2.53,2.06,4.1,2.21,5.4,2.32.54,1.32.82,2.5,1.78,2.56,4.09,4.1,2.61,2.69.55,3.47-4.1-.18-5.48-1-1.1-1.5-.95-2.87-1.34-3.22-3.07-1.77-.34,3.63,1.09,4.62,3,2.81,1.51,3.42-3.08,0-4.71-.87-1.64-1.55-1.65-2.61a1.66,1.66,0,0,0-1.78-1.79,2.12,2.12,0,0,0-1.92,2.6c.37,1.28,2.34,3.91,6.14,5.39s6.41.6,7.73-.54,3-1.54,3.51-.85-.24,1.64-2.37,1.78-1.63,4.1,1,4,6.37-6.87,6.84-8.24a7.13,7.13,0,0,1,4.71-3.93c2.64-.83,3.62.85,3.62.85,1.51,2.18-2.21,1.84-2.06,3.13s1.76.82,2.2,1.79-1.22,2.17-.46,2.9,2.1-.29,2.44-.94a.89.89,0,0,1,1.61.07c.42.74,2,6.19,3.12,10.2s.8,10.39-1.73,11.55-5.59.53-9.43-2.36-10.13-4.57-10.13-4.57c-1.47-4-5.37-4.62-5.51-1.26a8.14,8.14,0,0,0,.86,4.09c-32.93,10.48-59.37-.42-63-2.06,1.05-4.6.66-12.41-3-17.59-4.35-6.24-4.74-7.25-4.64-8.5s2.45-1.43,4-1.75a3,3,0,0,0,2.09-2.47c0-.35.28-.66.8-1.51s-1.83-1.22-3.07-1.35a6.52,6.52,0,0,1-3.33-1,14.92,14.92,0,0,0-4.51-2,4.55,4.55,0,0,1-3-2.15c-.79-1.19.72-2.79,1.44-3.73a3.89,3.89,0,0,1,2.67-1.55c.92,0,2.27-.62.72-2.46s-3.77-.25-4.43.54-2,3.42-2.67,4.15-.26-1.06,0-2.21a6,6,0,0,1,1.49-2.75c.72-.87,1.86-3.19-.26-3.85s-2.64,3.31-2.68,4.57-.4,2.14-.8,1.51-2-4.4-2-4.4a17.58,17.58,0,0,1,.06-4.32c.26-1.08.42-3.13,1.62-2.78s1.59-1.17,1.82-2.23-1.54-2.23-3.7-.1-2.56,6.25-2.35,8.11-.78,1.38-1.46.31-1-4-1-5.67a5.94,5.94,0,0,1,.84-2.93c.68-1.24.59-1.77-.16-2.47-.31-.28-1.69-.9-2.56,1.31s-.34,6.92-.18,9.23-1.33.63-2.77-1.1-1.26-2.15-1.2-3-.36-4.55-.43-5.57.59-1.22,1-2.67-2.09-2.28-3-.17-.19,5.94.37,8.55,0,1.74-1.12.89-2.73-4.24-3-6a26,26,0,0,1,.47-5.88c.21-1.65-1.45-2-2.38-.68s-.7,4.81.23,8.56,1.87,4.86,4.78,7.58,1.15,2.26-1.64,2.2-3.21-1.32-3.76-2.39-3.07-.34-2.72,1.8,3.85,2.6,5.15,2.84.39,1.37.56,2.57,1.52,2.72,3.66,4.49,2.33,2.93.2,3.51-4.06-.59-5.36-1.52-.94-1.6-.66-3-1-3.33-2.87-2.06-.7,3.58.62,4.7,2.69,3.1,1.17,3.56-3.07-.31-4.61-1.34-1.48-1.71-1.38-2.76a1.64,1.64,0,0,0-1.59-2,2.11,2.11,0,0,0-2.17,2.39c.24,1.31,1.94,4.13,5.57,6s6.32,1.24,7.74.24,3.14-1.24,3.59-.5-.4,1.61-2.54,1.54-2,3.91.61,4.08,7-6.2,7.62-7.52a7.13,7.13,0,0,1,5.08-3.44c2.71-.57,3.52,1.21,3.52,1.21,1.29,2.31-2.38,1.6-2.36,2.9s1.67,1,2,2-1.43,2-.74,2.84,2.12-.08,2.53-.69a.87.87,0,0,1,1.58.23c.35.78,1.33,6.36,2.1,10.46s-.24,10.42-2.87,11.32-5.62,0-9.15-3.29-9.63-5.56-9.63-5.56c-1.06-4.09-4.88-5.13-5.35-1.8a8.88,8.88,0,0,0-.08,1.42c-29.69-5.7-52.3-26-64-38.92a4.44,4.44,0,0,0-1.83-2c-2.45-2.8-4.3-5.11-5.51-6.68a1.79,1.79,0,0,0,1-1.92,1.83,1.83,0,0,0-2-1.12.58.58,0,0,0,.1-.49.77.77,0,0,0-1-.42h0l-.58.16a.55.55,0,0,0-.58-.2l-.67.17a.55.55,0,0,0-.41.45,53.05,53.05,0,0,1-8.92,1.56,14.66,14.66,0,0,1-1.65-3.55l.14,0a2.08,2.08,0,0,0,2.6-1.32A2.67,2.67,0,0,0,770.86,74c0-.12,0-.23,0-.34a10.25,10.25,0,0,0,0-1.36,8.21,8.21,0,0,1,.89.43,1.25,1.25,0,0,0-.75-1.25l.55,0a1.57,1.57,0,0,0-.45-.29c1.56-.14,1.95-2.81.42-2.92-2.83-10.41-13.06-9.86-17.69-5.62-4,3.67-6.38,6.61-10.37,4a2.62,2.62,0,1,0-3.58,1.56,2.66,2.66,0,0,0,1.75.15,3,3,0,0,0,.39.41c3.76,3.19,8.2,3.64,9,3.08-.77.87.39,2.34.39,2.34s.25.1.49,0a10.67,10.67,0,0,0,1.39,4.44,55.38,55.38,0,0,0-4.86,7.46c-1.22-.38-3.21.11-5.57.69a25.59,25.59,0,0,0,3.66-2.65.4.4,0,0,0,.06-.26,1,1,0,0,0-.46-.67,23.78,23.78,0,0,0-1.94-2l1-1.89-.25-.13-6-3.13a17.53,17.53,0,0,1,2.19.63c1.46.48,3,1,3.81.44a1.84,1.84,0,0,0,.71-1.44,2.79,2.79,0,0,0-1.65-2.52,5.44,5.44,0,0,0-3.12-.44A4.88,4.88,0,0,0,737.37,75V74.9a6.33,6.33,0,0,0,0-5.45,5,5,0,0,0-2.21-2.36,4.12,4.12,0,0,0-5.08.89,2.08,2.08,0,0,0-.49,1.68c.22.93,1.4,1.58,2.66,2.26a8.34,8.34,0,0,1,3.19,2.46L729,71.06l-.24-.13L728,72.32c-1.64-.6-2.77-.93-3-1h-.06a.45.45,0,0,0-.12.21,28.85,28.85,0,0,1-.25,5.25c-2.29-6.59-4.79-14.58-6.41-16.41-2-2.25-7-4.59-11,1.91s-2,13.23.33,10.73c4.78-5.19,5.65,1.36,5.05,8.89s-3.4,21.6-1.12,25.82c2.54,4.69,2.79,6.61,12.18,10.3-4.69,7.66-10.22,10.38-11.41,10.89L705.46,127a8.74,8.74,0,0,1-3-1.67c-1.73-1.54-2.24-3.52-1.55-6,.8-2.9,2.71-3.87,4.23-3.81a3.07,3.07,0,0,1,3,2.54,1.81,1.81,0,1,0,3.56-.69,6.69,6.69,0,0,0-6.42-5.48c-2.77-.1-6.5,1.53-7.86,6.48s.69,8,2.64,9.72a12.35,12.35,0,0,0,4.4,2.45c2.75.79,67.51,19.37,72.13,20.51,7.52,1.86,13,.58,16.87-3.9,4.37-5.1,4.53-10.5.48-16.49-.91-1.34-3-4.48-2.72-5.44,0-.1.23-.49,1.47-1a1.81,1.81,0,1,0-1.31-3.37c-2,.77-3.18,1.83-3.62,3.26-.76,2.43.91,5.19,3.17,8.54,3.14,4.65,3.07,8.27-.22,12.12-2.9,3.38-7.1,4.25-13.25,2.73-.51-.12-1.81-.48-3.71-1a1.67,1.67,0,0,0-.29-.69,18.06,18.06,0,0,1-2.32-4.33,31.37,31.37,0,0,1-2-9.5c12.8.86,19.3-12,19.19-17.88a145.1,145.1,0,0,0,25,12.7c12.72,4.9,27.49,8.26,43.17,7.28a4.55,4.55,0,0,0,.44.79,12.19,12.19,0,0,1-3.13,4.57c-2.37,2.26-6.34,2.37-8.41,2.27s-5.86,1.58-8.61,3-7.73,3-11.81,4.26-4.57,4.39-3.66,5.11a3,3,0,0,0,3.45-.14c1.25-.74,3.5-1.49,4.52-2s5.89-2.61,8-3.57,2.77-1.05,3.26-.53-.72,1.42-4.92,3.63-5.18,2.45-6,1.87-4.15,2.87-4.18,4.78,1.94,1.66,4.65.6,10.4-6.32,14.5-8.57,3.79-1.64,8.5-.47,6.34.24,8.47-.67,6.36,2.42,8.83,4.93a8.15,8.15,0,0,0,7.32,2.53c2-.37,4.2.55,7.91,2.51s8.37-.65,9.55-1.08.51.94-1.08,1.94-2.79,0-4.48,1-2.36,4.82-.85,5.29,5.12-2.81,6.23-3.55-.31,1-1.75,2.93-1.62,3.3-.76,3.92,2.28-.85,3.65-2.44,7.21-8.08,9.47-11.47-1.32-5-3.81-5.09-5,.24-5.49-.27.05-1.68.05-1.68a9.66,9.66,0,0,0,.47-1.18,81.38,81.38,0,0,0,19.8,5.47,96.17,96.17,0,0,0,44.24-3.52l0,0a12.29,12.29,0,0,1-2.66,4.87c-2.13,2.48-6.07,3-8.14,3.09s-5.68,2.15-8.27,3.89-7.39,3.74-11.33,5.42-4.1,4.82-3.12,5.44a3,3,0,0,0,3.41-.48c1.17-.86,3.34-1.83,4.3-2.45s5.6-3.19,7.63-4.36,2.65-1.32,3.19-.85-.57,1.49-4.52,4.1-4.92,2.95-5.81,2.46-3.84,3.27-3.68,5.17,2.09,1.46,4.68.14,9.72-7.32,13.58-10,3.61-2,8.41-1.31,6.33-.39,8.36-1.5,6.57,1.77,9.27,4a8.15,8.15,0,0,0,7.54,1.79c2-.57,4.23.13,8.12,1.71s8.26-1.48,9.4-2,.6.88-.88,2-2.79.25-4.36,1.4-1.87,5-.33,5.35,4.82-3.31,5.85-4.15-.21,1-1.45,3.08-1.28,3.45-.36,4,2.18-1.07,3.38-2.79,6.37-8.76,8.28-12.35-1.81-4.83-4.3-4.69-5,.74-5.49.27-.11-1.67-.11-1.67a8.37,8.37,0,0,0,.35-1.26,83.68,83.68,0,0,0,19.46,3.89,96.27,96.27,0,0,0,43.51-6.33,13.35,13.35,0,0,1-1.47,2.84c-1.82,2.72-5.67,3.68-7.71,4s-5.38,2.81-7.75,4.84-6.89,4.59-10.6,6.73-3.51,5.27-2.46,5.78a3,3,0,0,0,3.33-.89c1.06-1,3.1-2.21,4-2.95s5.19-3.82,7.07-5.23,2.47-1.62,3.06-1.23-.39,1.55-4,4.62-4.53,3.51-5.47,3.13-3.43,3.7-3,5.57,2.26,1.2,4.67-.42,8.78-8.42,12.29-11.52,3.35-2.42,8.2-2.3,6.24-1.14,8.12-2.49,6.73,1,9.69,2.89a8.09,8.09,0,0,0,7.69.88c1.93-.8,4.22-.37,8.27.74s8-2.46,9.09-3.13.7.8-.63,2.13-2.74.57-4.17,1.9-1.26,5.22.32,5.36,4.39-3.86,5.31-4.82-.09,1-1.07,3.23-.87,3.58.11,4,2-1.32,3-3.18,5.28-9.45,6.75-13.24-2.37-4.58-4.82-4.15-4.83,1.32-5.42.93-.32-1.65-.32-1.65a9.9,9.9,0,0,0,.27-2.28,82.34,82.34,0,0,0,20.23,2.68,96.2,96.2,0,0,0,42.49-9.09,13.46,13.46,0,0,1-1.06,2.72c-1.51,2.91-5.22,4.31-7.21,4.89s-5,3.4-7.15,5.69-6.33,5.34-9.78,7.88-2.88,5.63-1.79,6a3,3,0,0,0,3.22-1.25c.93-1.11,2.82-2.56,3.61-3.39s4.72-4.38,6.42-6,2.28-1.89,2.91-1.57-.21,1.58-3.46,5-4.1,4-5.08,3.73-3,4.06-2.39,5.88,2.37.94,4.59-.94,7.77-9.37,10.91-12.84,3-2.78,7.88-3.21,6.08-1.85,7.79-3.39,6.8.21,10,1.77a8.14,8.14,0,0,0,7.75,0c1.82-1,4.15-.85,8.29-.21s7.7-3.34,8.69-4.14.78.73-.39,2.19-2.65.88-3.92,2.37-.67,5.33.92,5.28,3.92-4.33,4.73-5.39,0,1-.7,3.34-.46,3.65.56,4,1.87-1.54,2.65-3.5,4.18-10,5.21-13.92S1220.1,145.57,1217.71,146.28Zm-46-29c-2.74.17-3.74-.94-4.91-1.93s-2.53-2.34-.83-2.69a4.91,4.91,0,0,0,1.72-1.17c.66-.78,1.88-1.06,2,.08s.52,2.2,2,2.46,2.51.54,2.73,1.38S1174.41,117.11,1171.66,117.28Zm7.49-3.88a18.8,18.8,0,0,1-3.62-.48s-2.6-.48-2.49-2.34.61-2.08,2.57-1,2.45,1.09,3.72,1.77S1181.55,113.4,1179.15,113.4Zm-109.06,10.82c-2.74-.14-3.6-1.36-4.65-2.47s-2.26-2.61-.53-2.76a4.83,4.83,0,0,0,1.84-1c.74-.7,2-.84,2,.31s.27,2.25,1.73,2.68,2.43.82,2.56,1.68S1072.84,124.37,1070.09,124.22Zm7.88-3a19,19,0,0,1-3.54-.88s-2.53-.77-2.21-2.61.85-2,2.67-.71,2.31,1.35,3.49,2.18S1080.36,121.49,1078,121.21Zm-109,.17c-2.71-.47-3.42-1.78-4.33-3s-1.93-2.85-.19-2.8a4.84,4.84,0,0,0,1.94-.75c.82-.6,2.08-.6,2,.55s0,2.26,1.4,2.86,2.32,1.11,2.34,2S971.66,121.85,969,121.38Zm8.18-2a19.26,19.26,0,0,1-3.41-1.29s-2.42-1.07-1.88-2.86,1.07-1.88,2.73-.39,2.13,1.62,3.21,2.58S979.47,119.89,977.13,119.33Zm-109.41-11.4c-2.65-.74-3.22-2.11-4-3.43s-1.63-3,.09-2.81a4.76,4.76,0,0,0,2-.55c.88-.52,2.12-.39,1.91.75s-.22,2.24,1.11,3,2.2,1.33,2.13,2.2S870.37,108.66,867.72,107.93Zm8.35-1.23a18.73,18.73,0,0,1-3.27-1.63s-2.3-1.3-1.59-3,1.26-1.77,2.76-.12,2,1.82,2.94,2.88S878.34,107.49,876.07,106.7ZM787.78,89.3a10.72,10.72,0,0,0-4.3.63S776,92,775.43,99.23c-.08,1.08-.19,2.39-.37,3.83-.9-.74-1.65-1.36-2.22-1.85a2.44,2.44,0,0,0-.31-1,.55.55,0,0,0,.48-.12.78.78,0,0,0-.07-1h0l-.44-.48a.55.55,0,0,0,0-.58l-.46-.51a.52.52,0,0,0-.58-.13q-1.44-1.59-2.74-3.28c.11-1.21.17-2.45.2-3.66a20.15,20.15,0,0,0,3.47,1.53,7,7,0,0,1-.66-5.88,2.13,2.13,0,0,0,.07-.27,54.68,54.68,0,0,0,9.65-1.64.57.57,0,0,0,.61.25l.67-.17a.57.57,0,0,0,.41-.47l.18-.05C784.26,85,785.78,87,787.78,89.3Zm-32.94,38.85a33.88,33.88,0,0,0,2.92,13.77c-9.33-2.65-20.48-5.84-30.09-8.59A31.33,31.33,0,0,0,738,123C742.65,124.43,748.19,126.13,754.84,128.15Zm4-9.34c-3.61-1.22-3.42-2.73-1.13-9.63a15,15,0,0,0,.57-2.59c.15,0,.38.07.82.51,1.28,1.36-1.74,8.93-.13,10.3a1.64,1.64,0,0,0-.16.65A4.6,4.6,0,0,0,758.84,118.81Zm11.88-47.73h-.05V71Zm-30,3.12a4.56,4.56,0,0,1,2.59.21,1.6,1.6,0,0,1,.78.92.19.19,0,0,1,0,.09.79.79,0,0,1-.26.65c-.42.33-1.32.11-2.35-.14a9.42,9.42,0,0,0-3.46-.51l.07,0A4.77,4.77,0,0,1,740.73,74.2Zm-6.85-2.5c-.9-.56-1.68-1-1.75-1.67A1.32,1.32,0,0,1,732.7,69a2.69,2.69,0,0,1,2.54-.18,3,3,0,0,1,1.38,1.88,4.62,4.62,0,0,1,0,3.47l-.08-.15A6.37,6.37,0,0,0,733.88,71.7Zm-7.11,47.51c2.31.83,5,1.75,8.27,2.8-5.09,7.53-10.79,9.68-10.87,9.71a1.43,1.43,0,0,0-.61.44l-6.83-2A33.28,33.28,0,0,0,726.77,119.21Zm35.61,24c-.82-1.17-3.76-5.91-4.12-14l6.22,1.87c.54.17,1.08.3,1.6.42a31.94,31.94,0,0,0,3.55,13.8Zm7.55-24.63a1.44,1.44,0,0,0-.18-.53c-.38-.63-.55-1.15-3.7-1.44.54-3.29,4.38-10.47,2-13.16a5.87,5.87,0,0,0-2.16-1.38,4.64,4.64,0,0,0,1.63-2.36l.54.59a.53.53,0,0,0,.08.53l.45.51a.53.53,0,0,0,.57.13l.53.56a2,2,0,0,0,2.73.47s0,0,0,0c.64.55,1.45,1.22,2.42,2C774.17,109.53,772.76,115.58,769.93,118.6Zm18.21-6.13c-.82-4.54-3.42-6-4.71-8.85s-1.54-7.67,1.71-8.77-2.59,4.65.67,7.43c2.52,2.16,7.22-1.69,6.6-7.82a146.67,146.67,0,0,0,25.51,21.74c10.73,7.12,23.55,13.28,38,16a5.51,5.51,0,0,0,.14.64C828.39,134.41,803.63,122.42,788.14,112.47Z"/><polygon class="cls-2" points="674.99 115.59 673.04 116.92 673.17 114.56 671.3 113.11 673.59 112.51 674.38 110.28 675.67 112.27 678.03 112.34 676.54 114.17 677.2 116.44 674.99 115.59"/><path class="cls-3" d="M599.79,78.84a.5.5,0,0,1,.53-.14l3.54,1.21,2.22-3a.5.5,0,0,1,.52-.19.51.51,0,0,1,.38.39l.72,3.67,3.71.42a.51.51,0,0,1,.43.35.52.52,0,0,1-.15.53l-2.82,2.46L610.36,88a.52.52,0,0,1-.09.55.5.5,0,0,1-.53.13l-3.54-1.21-2.22,3a.5.5,0,0,1-.52.2.52.52,0,0,1-.38-.4l-.72-3.66-3.71-.43a.5.5,0,0,1-.28-.88l2.82-2.45-1.49-3.43A.49.49,0,0,1,599.79,78.84Zm4.48,1.89c-.13.15-.27.26-.46.2L601,80l1.2,2.73a.51.51,0,0,1-.12.59l-2.23,2,3,.33a.52.52,0,0,1,.44.41l.57,2.91,1.76-2.39a.51.51,0,0,1,.57-.17l2.8,1L607.8,84.6a.49.49,0,0,1,.13-.58l2.23-2-2.94-.33a.51.51,0,0,1-.44-.41l-.64-3-1.83,2.32Z"/><polygon class="cls-4" points="633.87 79.89 633.25 77.69 635.37 78.54 637.27 77.27 637.12 79.55 638.92 80.96 636.71 81.53 635.91 83.67 634.69 81.74 632.41 81.65 633.87 79.89"/><polygon class="cls-5" points="624.01 93.3 622.04 92.11 622.29 94.4 620.55 95.9 622.8 96.37 623.69 98.49 624.84 96.49 627.13 96.3 625.58 94.6 626.1 92.36 624.01 93.3"/><path class="cls-6" d="M618.05,64.75a.89.89,0,0,0-.26-1.25.9.9,0,1,0-1,1.51A.88.88,0,0,0,618.05,64.75Z"/><polygon class="cls-7" points="580.07 75.31 580.39 73.01 578.38 74.16 576.29 73.14 576.76 75.42 575.15 77.08 577.45 77.34 578.55 79.39 579.5 77.28 581.78 76.87 580.07 75.31"/><polygon class="cls-8" points="597.31 51.56 597 49.79 595.78 51.12 594 50.87 594.89 52.44 594.11 54.05 595.87 53.69 597.16 54.94 597.36 53.15 598.95 52.31 597.31 51.56"/><path class="cls-9" d="M576.24,55.82a.9.9,0,1,1,.7-1.07A.9.9,0,0,1,576.24,55.82Z"/><path class="cls-10" d="M468.18,1.79a.9.9,0,0,1-1.06-.7.9.9,0,1,1,1.76-.37A.9.9,0,0,1,468.18,1.79Z"/><path class="cls-11" d="M582.92,42.1a.9.9,0,0,1-1.11-.63.91.91,0,0,1,1.75-.47A.9.9,0,0,1,582.92,42.1Z"/><path class="cls-12" d="M661.73,106.93a.9.9,0,1,1,.69-1.06A.9.9,0,0,1,661.73,106.93Z"/><polygon class="cls-13" points="555.07 47.65 553.14 46.16 555.49 45.54 556.31 43.24 557.64 45.29 560.07 45.36 558.53 47.25 559.22 49.59 556.95 48.71 554.94 50.08 555.07 47.65"/><path class="cls-14" d="M659.17,95.26a.9.9,0,0,1-1.09-.65.9.9,0,1,1,1.09.65Z"/><path class="cls-15" d="M531.86,39.62a.53.53,0,0,1,.41.37l1,3.61,3.73.18a.49.49,0,0,1,.44.32.49.49,0,0,1-.11.54l-2.65,2.63,1.72,3.32a.5.5,0,0,1-.06.55.49.49,0,0,1-.52.17l-3.61-1-2,3.14a.5.5,0,0,1-.91-.14l-1-3.61-3.73-.18a.5.5,0,0,1-.45-.32.51.51,0,0,1,.12-.54l2.64-2.64-1.71-3.32a.49.49,0,0,1,.06-.54.48.48,0,0,1,.52-.17l3.61,1,2-3.14A.52.52,0,0,1,531.86,39.62Zm.83,5.48c-.2,0-.32-.43-.38-.63l-.74-3L530,43.91a.47.47,0,0,1-.55.18l-2.86-.79,1.36,2.63a.5.5,0,0,1-.09.58l-2.1,2.09,3,.14a.5.5,0,0,1,.46.37l.76,2.87,1.6-2.5a.51.51,0,0,1,.56-.21l2.86.77-1.36-2.63a.5.5,0,0,1,.09-.59L535.74,45l-3,.12Z"/><polygon class="cls-16" points="543.22 28.39 542.9 26.62 541.69 27.95 539.91 27.7 540.8 29.27 540.01 30.88 541.77 30.52 543.07 31.77 543.27 29.98 544.85 29.14 543.22 28.39"/><polygon class="cls-17" points="518.25 23.99 517.94 22.22 516.73 23.55 514.95 23.3 515.83 24.86 515.05 26.48 516.81 26.12 518.1 27.37 518.3 25.58 519.89 24.73 518.25 23.99"/><polygon class="cls-18" points="497.79 31.15 496.33 28.71 499.16 29.04 501.03 26.91 501.59 29.69 504.2 30.82 501.72 32.21 501.46 35.04 499.37 33.11 496.6 33.73 497.79 31.15"/><path class="cls-19" d="M477.94,17.67a1.74,1.74,0,1,1,1.24-2.13A1.74,1.74,0,0,1,477.94,17.67Z"/><path class="cls-20" d="M485.42,5.63a.9.9,0,1,1,.64-1.1A.9.9,0,0,1,485.42,5.63Z"/><polygon class="cls-21" points="538.27 12.6 537.96 10.84 536.75 12.16 534.97 11.91 535.85 13.48 535.07 15.09 536.83 14.73 538.13 15.98 538.33 14.19 539.91 13.35 538.27 12.6"/><path class="cls-22" d="M643.87,99a.35.35,0,0,1,.39,0l2.23,1.44,2-1.69a.37.37,0,0,1,.39,0,.36.36,0,0,1,.2.34l-.14,2.65,2.48.93a.36.36,0,0,1,.23.31.37.37,0,0,1-.19.34l-2.36,1.2.43,2.62a.34.34,0,0,1-.15.35.37.37,0,0,1-.39,0l-2.23-1.45-2,1.69a.36.36,0,0,1-.59-.3l.14-2.64-2.48-.93a.37.37,0,0,1,0-.66l2.36-1.2-.43-2.62A.35.35,0,0,1,643.87,99Zm2.76,2.07a.31.31,0,0,1-.35.06l-1.74-1.12.35,2.09a.36.36,0,0,1-.18.38l-1.87,1,2,.74a.37.37,0,0,1,.24.35l-.11,2.1,1.62-1.33a.36.36,0,0,1,.42,0l1.76,1.14-.34-2.07a.34.34,0,0,1,.19-.37l1.87-1-2-.74a.36.36,0,0,1-.23-.35l.07-2.15-1.66,1.28Z"/><path class="cls-23" d="M565.13,24.79a.31.31,0,0,1,.27.21l.78,2.18,2.31-.08a.31.31,0,0,1,.29.17.32.32,0,0,1,0,.34l-1.5,1.76,1.22,2a.3.3,0,0,1,0,.34.29.29,0,0,1-.32.13l-2.27-.41-1.09,2a.3.3,0,0,1-.29.17.3.3,0,0,1-.27-.21l-.78-2.18-2.31.08a.29.29,0,0,1-.29-.17.3.3,0,0,1,0-.34l1.5-1.76-1.23-2a.3.3,0,0,1,0-.34.28.28,0,0,1,.31-.13l2.28.41,1.08-2A.33.33,0,0,1,565.13,24.79Zm.81,2.34c-.12,0-.23.25-.27.13l-.62-1.55-.86,1.7a.33.33,0,0,1-.33.2l-1.81-.3,1,1.56a.32.32,0,0,1,0,.37l-1.19,1.4,1.83-.06a.31.31,0,0,1,.31.21l.62,1.72.86-1.62a.31.31,0,0,1,.33-.16l1.8.33-1-1.55a.33.33,0,0,1,0-.37l1.19-1.74L566,27.13Z"/><path class="cls-24" d="M496.43,15.13a.9.9,0,0,1-.41-1.76.9.9,0,1,1,.41,1.76Z"/><path class="cls-25" d="M555.28,65.89a1.67,1.67,0,1,1,1.29-2A1.66,1.66,0,0,1,555.28,65.89Z"/><path class="cls-26" d="M594.56,68.64a1.67,1.67,0,1,1,1.29-2A1.66,1.66,0,0,1,594.56,68.64Z"/><path class="cls-27" d="M512.85,5.58a.21.21,0,0,1,.22,0l1.11,1.12,1.4-.72a.21.21,0,0,1,.23,0,.19.19,0,0,1,.07.22l-.41,1.52,1.32.86a.2.2,0,0,1,.09.21.2.2,0,0,1-.15.17l-1.52.4L515.13,11a.22.22,0,0,1-.37.14L513.66,10l-1.4.72a.21.21,0,0,1-.31-.24L512.37,9l-1.32-.86a.22.22,0,0,1-.1-.21.23.23,0,0,1,.16-.17l1.52-.4.08-1.57A.2.2,0,0,1,512.85,5.58Zm1.35,1.59a.18.18,0,0,1-.22,0l-.87-.88-.06,1.25a.24.24,0,0,1-.16.2L511.68,8l1.05.67a.22.22,0,0,1,.09.24l-.33,1.2,1.11-.57a.23.23,0,0,1,.25,0l.88.89.06-1.25a.2.2,0,0,1,.16-.19l1.21-.32-1-.68a.2.2,0,0,1-.09-.23l.32-1.22-1.12.55Z"/><path class="cls-28" d="M685.51,122.43a1.15,1.15,0,0,1-.57-2.22,1.15,1.15,0,1,1,.57,2.22Z"/><path d="M388.81,186.71H356.14l-6.09,15.5H334.54L362.78,133h19.39l28.24,69.78H394.9Zm-5-12.18-11.08-27.69-11.07,27.69Zm77-21.6-19.93,49.28H425.36l-19.94-49.28h15l12.73,32.67,12.74-32.67Zm24.92,0a28.19,28.19,0,0,1,12.18,2.77,16.27,16.27,0,0,1,7.76,8.3,29,29,0,0,1,2.77,12.74v26H496.24L494,198.89c-1.66,1.66-3.33,2.22-5.54,3.32a27.53,27.53,0,0,1-6.65,1.11,25.81,25.81,0,0,1-9.41-1.66,12.92,12.92,0,0,1-6.64-5.54c-1.67-2.21-2.22-5-2.22-8.3,0-3.88,1.11-7.2,3.32-9.42a16.35,16.35,0,0,1,8.86-5.54,47.55,47.55,0,0,1,12.74-1.66h4.43c-.55-2.21-1.11-3.87-2.77-5a9.92,9.92,0,0,0-6.09-1.66,27.53,27.53,0,0,0-6.65,1.11,11.46,11.46,0,0,0-5.53,3.32l-6.09-7.2C471.32,155.14,478,152.93,485.72,152.93Zm-7.2,34.33a5.71,5.71,0,0,0,6.09,6.09,16.3,16.3,0,0,0,5-1.1,9.91,9.91,0,0,0,3.87-2.77v-9.42H489C481.84,179.51,478.52,182.28,478.52,187.26Zm39.32-58.14h14.95v73.09H517.84ZM566,202.77a30.09,30.09,0,0,1-13.85-3.32,24.24,24.24,0,0,1-9.41-8.86,28.28,28.28,0,0,1,0-26.59,24.24,24.24,0,0,1,9.41-8.86A27.05,27.05,0,0,1,566,151.82a30.08,30.08,0,0,1,13.84,3.32,24.27,24.27,0,0,1,9.42,8.86,28.28,28.28,0,0,1,0,26.59,24.27,24.27,0,0,1-9.42,8.86A27,27,0,0,1,566,202.77Zm0-12.18a11.15,11.15,0,0,0,6.09-1.67,9.87,9.87,0,0,0,3.88-4.43,14.13,14.13,0,0,0,0-13.29,10.33,10.33,0,0,0-3.88-4.43,11.23,11.23,0,0,0-6.09-1.66,12.67,12.67,0,0,0-6.09,1.66,16.67,16.67,0,0,0-4.43,4.43,14.06,14.06,0,0,0,0,13.29,8.56,8.56,0,0,0,4.43,4.43A12.57,12.57,0,0,0,566,190.59Zm60.36-37.66q10.8,0,16.61,6.64c3.88,4.43,5.54,11.08,5.54,20.49v22.71H633.58V180.06c0-10-2.77-14.95-8.86-14.95s-9.42,3.88-9.42,12.18v24.92H600.35V153.48h12.19l1.66,7.2a12.14,12.14,0,0,1,5-5.54C620.29,153.48,623.06,152.93,626.38,152.93ZM388.81,239.87H369.43v57H354.48v-57H335.09V227.13h54.27v12.74Zm44.3,36.55h-36a10.8,10.8,0,0,0,4.43,7.2,13.59,13.59,0,0,0,8.3,2.77,23.78,23.78,0,0,0,6.1-1.11,40.16,40.16,0,0,0,5-3.32l8.86,7.75a34,34,0,0,1-8.86,6.65,24.81,24.81,0,0,1-11.08,2.21,26.38,26.38,0,0,1-13.29-3.32,25.61,25.61,0,0,1-9.41-9.42,26.22,26.22,0,0,1-3.32-13.29c0-5,1.1-9.41,3.32-12.73A22.6,22.6,0,0,1,396,251a26.28,26.28,0,0,1,13.29-3.33,23.61,23.61,0,0,1,21.6,12.74,25.8,25.8,0,0,1,3.32,12.74v3.32ZM409.3,259.25a11.15,11.15,0,0,0-7.2,2.22,12.54,12.54,0,0,0-4.43,6.09h21.6a13.23,13.23,0,0,0-3.32-6.09C414.28,259.81,411.52,259.25,409.3,259.25Zm54.82,38.21a26.28,26.28,0,0,1-13.29-3.32,24.1,24.1,0,0,1-9.41-8.86,25.69,25.69,0,0,1-3.32-12.74,27.78,27.78,0,0,1,3.32-13.29,25.59,25.59,0,0,1,9.41-9.41,26.28,26.28,0,0,1,13.29-3.32,22.19,22.19,0,0,1,8.31,1.66,33.42,33.42,0,0,1,7.75,3.87,29.25,29.25,0,0,1,6.09,5.54L475.2,265.9a10.33,10.33,0,0,0-4.43-3.88,12.62,12.62,0,0,0-6.09-1.66,11.12,11.12,0,0,0-6.09,1.66,16.67,16.67,0,0,0-4.43,4.43,13.16,13.16,0,0,0-1.67,6.65,11.15,11.15,0,0,0,1.67,6.09,16.67,16.67,0,0,0,4.43,4.43,11.12,11.12,0,0,0,6.09,1.66,10.69,10.69,0,0,0,5.54-1.66,10.33,10.33,0,0,0,4.43-3.88l11.07,7.76c-1.66,1.66-3.32,3.87-5.54,5a33.85,33.85,0,0,1-7.75,3.88A21.68,21.68,0,0,1,464.12,297.46Zm56.49-49.84q10.8,0,16.61,6.65c3.88,4.43,5.54,11.07,5.54,20.49v22.7h-15v-22.7c0-10-2.77-14.95-8.86-14.95s-9.42,3.87-9.42,12.18v24.92H494.58V224.37h14.95v28.79C511.75,249.28,515.62,247.62,520.61,247.62Zm57.59,0q10.8,0,16.61,6.65c3.88,4.43,5.54,11.07,5.54,20.49v22.7h-15v-22.7c0-10-2.77-14.95-8.86-14.95s-9.41,3.87-9.41,12.18v24.92h-15V247.62h12.19l1.66,7.2a12.2,12.2,0,0,1,5-5.54A13.93,13.93,0,0,1,578.2,247.62Zm55.93,49.84a30,30,0,0,1-13.84-3.32,24.12,24.12,0,0,1-9.42-8.86,28.26,28.26,0,0,1,0-26.58,24.12,24.12,0,0,1,9.42-8.86,26.89,26.89,0,0,1,13.84-3.32A30,30,0,0,1,648,249.84a24.1,24.1,0,0,1,9.41,8.86,28.26,28.26,0,0,1,0,26.58,24.1,24.1,0,0,1-9.41,8.86A30,30,0,0,1,634.13,297.46Zm0-12.18a11.12,11.12,0,0,0,6.09-1.66,9.8,9.8,0,0,0,3.88-4.43,14.13,14.13,0,0,0,0-13.29,10.21,10.21,0,0,0-3.88-4.43,11.12,11.12,0,0,0-6.09-1.66,12.62,12.62,0,0,0-6.09,1.66,17,17,0,0,0-4.43,4.43,13.12,13.12,0,0,0-1.66,6.64,14.73,14.73,0,0,0,1.66,6.65,8.7,8.7,0,0,0,4.43,4.43A11.15,11.15,0,0,0,634.13,285.28Zm33.23-60.91h14.95v73.09H667.36Zm48.73,73.09a30,30,0,0,1-13.84-3.32,24.12,24.12,0,0,1-9.42-8.86,28.26,28.26,0,0,1,0-26.58,24.12,24.12,0,0,1,9.42-8.86,26.89,26.89,0,0,1,13.84-3.32,30,30,0,0,1,13.85,3.32,24.17,24.17,0,0,1,9.41,8.86,28.26,28.26,0,0,1,0,26.58,24.17,24.17,0,0,1-9.41,8.86A30,30,0,0,1,716.09,297.46Zm0-12.18a11.12,11.12,0,0,0,6.09-1.66,9.92,9.92,0,0,0,3.88-4.43,14.13,14.13,0,0,0,0-13.29,10.27,10.27,0,0,0-3.88-4.43,11.12,11.12,0,0,0-6.09-1.66,12.59,12.59,0,0,0-6.09,1.66,17,17,0,0,0-4.43,4.43,14.13,14.13,0,0,0,0,13.29,8.67,8.67,0,0,0,4.43,4.43A12.59,12.59,0,0,0,716.09,285.28Zm83.07-37.1v45.41q0,14.12-6.65,21.59c-4.43,5-11.07,7.76-20.49,7.76a29,29,0,0,1-11.63-2.22c-3.87-1.66-7.2-3.32-10.52-6.64L757.62,303a23.14,23.14,0,0,0,6.65,4.43,17.62,17.62,0,0,0,7.75,1.66,12.18,12.18,0,0,0,10-4.43c2.21-2.77,2.77-6.64,2.77-11.63a11.54,11.54,0,0,1-5.54,3.33,14.11,14.11,0,0,1-6.64,1.1,25.69,25.69,0,0,1-12.74-3.32,22.6,22.6,0,0,1-8.86-8.86,25.69,25.69,0,0,1-3.32-12.74A26.28,26.28,0,0,1,751,259.25a25.59,25.59,0,0,1,9.41-9.41,26.28,26.28,0,0,1,13.29-3.32,20,20,0,0,1,6.09,1.1c2.22.56,3.33,1.66,5,3.33l2.21-3.33Zm-24.92,38.21c4.43,0,7.2-1.66,10-5V263.68c-2.21-2.77-5-3.87-8.86-3.87a14.69,14.69,0,0,0-6.64,1.66,10.83,10.83,0,0,0-5,5,14.06,14.06,0,0,0,0,13.29,13,13,0,0,0,4.43,5C770.36,285.28,772.58,286.39,774.24,286.39Zm34.33-38.21h14.95v49.28H808.57Zm0-22.71h15.51V241H808.57Zm72,51h-36a10.8,10.8,0,0,0,4.43,7.2,13.59,13.59,0,0,0,8.3,2.77,23.63,23.63,0,0,0,6.09-1.11,39.58,39.58,0,0,0,5-3.32l8.86,7.75a34,34,0,0,1-8.86,6.65,24.81,24.81,0,0,1-11.08,2.21A26.38,26.38,0,0,1,844,295.25a25.61,25.61,0,0,1-9.41-9.42,26.22,26.22,0,0,1-3.32-13.29c0-5,1.1-9.41,3.32-12.73a22.6,22.6,0,0,1,8.86-8.86,26.23,26.23,0,0,1,13.29-3.33,23.61,23.61,0,0,1,21.6,12.74,25.8,25.8,0,0,1,3.32,12.74Zm-23.81-17.17a11.13,11.13,0,0,0-7.2,2.22,12.48,12.48,0,0,0-4.43,6.09h21.6a13.16,13.16,0,0,0-3.33-6.09C861.73,259.81,859.52,259.25,856.75,259.25Zm49.84,38.21a34,34,0,0,1-19.94-6.09l5.54-10.52a36.86,36.86,0,0,0,6.65,3.32,32,32,0,0,0,7.19,1.11c2.22,0,3.88,0,5-.55s2.21-1.11,2.21-2.77c0-1.11-.55-1.66-1.66-2.22s-3.32-1.66-6.09-2.77a63.57,63.57,0,0,1-8.31-3.32,14,14,0,0,1-5.53-4.43c-1.66-1.66-2.22-3.88-2.22-6.64a13.59,13.59,0,0,1,2.77-8.31,16.49,16.49,0,0,1,7.75-5.54c3.33-1.11,6.65-2.21,10.52-2.21a49.09,49.09,0,0,1,9.42,1.1,62,62,0,0,1,8.86,3.88l-5,10a22.46,22.46,0,0,0-5-2.77,20.9,20.9,0,0,0-6.09-.55,16.46,16.46,0,0,0-5.54,1.1,3,3,0,0,0-2.21,3.33c0,.55.55,1.1,1.1,1.66a4.28,4.28,0,0,0,2.77,1.1,18.82,18.82,0,0,0,4.43,1.67c3.33,1.1,6.09,2.21,8.31,2.76a14.09,14.09,0,0,1,5.54,4.43c1.66,1.67,2.21,4.43,2.21,7.2a12,12,0,0,1-2.77,7.76,15.8,15.8,0,0,1-7.75,5A22.52,22.52,0,0,1,906.59,297.46Z"/><path class="cls-29" d="M85.83,174.53c8.86,0,16.06,1.66,22.15,5.53a35.55,35.55,0,0,1,14.4,15.51q5,10,5,23.26v49.28H105.22l-4.43-7.2A40.44,40.44,0,0,1,90.26,267c-3.87,1.1-7.75,2.21-12.18,2.21a46,46,0,0,1-17.72-3.32,30.42,30.42,0,0,1-12.18-10,30.27,30.27,0,0,1-4.43-16.06c0-7.2,2.21-13.29,6.09-17.72a35.84,35.84,0,0,1,16.61-10.52,79.66,79.66,0,0,1,23.81-3.32H98a14.38,14.38,0,0,0-5-9.42q-4.16-3.31-11.63-3.32a36.78,36.78,0,0,0-11.63,1.66,23.2,23.2,0,0,0-10,6.09L48.73,189.48C58.7,179.51,70.88,174.53,85.83,174.53ZM71.44,239.32c0,3.32,1.1,6.09,3.32,7.75a13.59,13.59,0,0,0,8.31,2.77,17.58,17.58,0,0,0,8.86-2.22,16.85,16.85,0,0,0,7.19-5V224.92c-2.21,0-5-.55-8.3-.55C77.53,224.92,71.44,229.9,71.44,239.32Z"/><path class="cls-30" d="M182.74,123H0V311.31H250.86V174.53H223.17V283.62H27.69V150.71H182.74Z"/><path class="cls-31" d="M250.86,174.53H182.74V140.19H154v34.34H118c7.2,5,13.29,12.73,17.17,23.25H154v37.11a37.12,37.12,0,0,0,4.43,18.27A29.31,29.31,0,0,0,170,264.79c5,2.77,11.07,3.88,17.72,3.88a50.09,50.09,0,0,0,9.41-.56,27.12,27.12,0,0,0,7.2-2.21V242.09a28.06,28.06,0,0,1-10.52,1.66,10,10,0,0,1-8.31-3.88,22.51,22.51,0,0,1-2.77-11.63V197.78h68.12Z"/><path d="M247.68,312.13a118.42,118.42,0,0,0,26.33,1.2,165.19,165.19,0,0,0-.3-21.34,2.37,2.37,0,0,0-.52-1.58,2.4,2.4,0,0,0-1.6-.48c-5.74-.3-18-2.52-22.5,2.06C246.92,294.2,245.83,311.84,247.68,312.13Z"/><path class="cls-32" d="M271,294.94h39.9c6.43,0,13,0,19.09-2a9.43,9.43,0,0,0,4.27-2.45c2.83-3.18,1.24-8.16-.61-12a182.78,182.78,0,0,0-27.82-41.68c-1.79-2-3.76-4.49-3.06-7.09.74-2.75,4.06-3.88,6.9-3.92s5.84.53,8.44-.62c3.72-1.64,5.25-6.38,4.46-10.36s-3.32-7.38-5.88-10.54c-10.78-13.33-23.18-25.55-31.57-40.5-2.28-4.06-4.06-9.64-.78-12.94,4.54-4.56,14.67-.24,17.5-6,1.36-2.78-.18-6-1.74-8.7a285.81,285.81,0,0,0-31-43.4c-2.06-2.38-5.47-5.08-8.62-5.09a9,9,0,0,0-7.74,4.58c-.16.3-.33.74-.58.51a286.5,286.5,0,0,0-31,43.4c-1.55,2.67-3.09,5.92-1.73,8.7,2.83,5.78,12.95,1.46,17.5,6,3.28,3.3,1.5,8.88-.78,12.94-8.39,14.95-20.8,27.17-31.58,40.5-2.55,3.16-5.1,6.55-5.88,10.54s.75,8.72,4.46,10.36c2.61,1.15,5.6.58,8.44.62s6.17,1.17,6.91,3.92c.7,2.6-1.27,5.08-3.06,7.09a182.46,182.46,0,0,0-27.82,41.68c-1.86,3.83-3.44,8.81-.62,12a9.51,9.51,0,0,0,4.28,2.45c6.1,2,12.66,2,19.08,2H271Z"/><path class="cls-33" d="M252.36,167.72a5.14,5.14,0,1,0,4.66-1.35c-1.54-.33-3.52.45-3.63,2"/><path class="cls-33" d="M277.48,208a5.3,5.3,0,0,0-2.34,6.16,6.51,6.51,0,0,0,5.3,4.23,5.17,5.17,0,0,0,2.44-.22c2.12-.78,3.15-3.29,3.13-5.55a5.35,5.35,0,0,0-1-3.31c-1.59-2-4.58-1.73-7.06-1.32"/><path class="cls-33" d="M224.9,261.77a5.28,5.28,0,0,0-4.19,6.14,5.38,5.38,0,0,0,6.39,3.85,5.49,5.49,0,0,0,3.72-6.51,5.6,5.6,0,0,0-6.5-3.8"/><path class="cls-33" d="M252.13,237.39a6.29,6.29,0,0,0-4.06,4,5.34,5.34,0,0,0,1.47,5.44,7.54,7.54,0,0,0,3.94,1.58,4.72,4.72,0,0,0,2.05,0,4.19,4.19,0,0,0,2.42-2.55,6.49,6.49,0,0,0-.81-6.62c-1.53-1.76-4.55-2.18-6.26-.58"/><path class="cls-33" d="M243.16,198.49c-1.29,1.29-1.33,3.34-1.29,5.17a4.18,4.18,0,0,0,.41,2A3.71,3.71,0,0,0,244,207a8.74,8.74,0,0,0,5.27.89,5.68,5.68,0,1,0-6-8.55"/><path class="cls-33" d="M264.87,121a6.31,6.31,0,0,0-4.06,4,5.35,5.35,0,0,0,1.47,5.44,7.54,7.54,0,0,0,3.94,1.58,4.72,4.72,0,0,0,2-.05,4.15,4.15,0,0,0,2.42-2.54,6.47,6.47,0,0,0-.8-6.62c-1.54-1.76-4.56-2.18-6.26-.58"/><path class="cls-33" d="M286.13,261.31c-2,0-3.63,1.89-3.92,3.88a6.07,6.07,0,0,0,2.88,6,5.81,5.81,0,0,0,6.58-.67,5.55,5.55,0,0,0,1.22-6.46,4.14,4.14,0,0,0-1.25-1.5,4.78,4.78,0,0,0-2-.8,7.78,7.78,0,0,0-4.52.5"/><path class="cls-33" d="M261.16,45.67a208,208,0,0,1,9.09,26.16l28,3.59a145.26,145.26,0,0,1-21.39,15.66,92.29,92.29,0,0,0,1.06,22.82L260.89,97.21a4,4,0,0,0-1.69-1.16c-1.16-.31-2.32.43-3.29,1.14l-23.18,16.92,6.62-19.49a6.7,6.7,0,0,0,.52-3.32,6.67,6.67,0,0,0-1.56-2.77L223.82,70.34c1.3,1.58,24.17,2.71,26.24,1.46C254.93,68.85,258.7,51.13,261.16,45.67Z"/></g></g></svg>